<svg id="LINE" enable-background="new 0 0 36 36" height="512" viewBox="0 0 36 36" width="512" xmlns="http://www.w3.org/2000/svg"><path d="m8.377 31.833c6.917 0 11.667 3.583 15 3.583s10.333-1.916 10.333-17.249-9.417-17.584-13.083-17.584c-17.167 0-24.5 31.25-12.25 31.25z" fill="#efefef"/><path d="m9.043 3.598h2v1h-2z" fill="#a4afc1" transform="matrix(.707 -.707 .707 .707 .044 8.302)"/><path d="m4.977 7.664h2v1h-2z" fill="#a4afc1" transform="matrix(.707 -.707 .707 .707 -4.022 6.618)"/><path d="m5.477 2.922h1v2h-1z" fill="#a4afc1" transform="matrix(.707 -.707 .707 .707 -1.023 5.374)"/><path d="m30.631 32.426c-.827 0-1.5-.673-1.5-1.5s.673-1.5 1.5-1.5 1.5.673 1.5 1.5-.673 1.5-1.5 1.5zm0-2c-.276 0-.5.224-.5.5s.224.5.5.5.5-.224.5-.5-.224-.5-.5-.5z" fill="#a4afc1"/><g fill="#2fdf84"><path d="m24.571 11.429 1.383-1.383z"/><path d="m27.293 18h1.957z"/><path d="m24.571 24.571 1.383 1.383z"/><path d="m11.429 24.571-1.383 1.383z"/><path d="m8.707 18h-1.957z"/><path d="m11.429 11.429-1.383-1.383z"/><path d="m18.25 14.25c1.933 0 3.5 1.567 3.5 3.5z"/><path d="m24.25 18c0-3.892-3.558-6.953-7.599-6.109-2.368.495-4.279 2.415-4.765 4.785-.527 2.567.522 4.931 2.356 6.311.99.746 1.508 1.965 1.508 3.205v1.764c0 .853.448 1.294 1 1.294h2.5c.552 0 1-.448 1-1v-2.223c0-1.239.637-2.353 1.612-3.119 1.453-1.143 2.388-2.915 2.388-4.908z"/></g><path d="m17.75 27.956v-1.764c0-1.24-.518-2.459-1.508-3.205-1.833-1.381-2.883-3.744-2.356-6.311.487-2.37 2.397-4.29 4.765-4.785.119-.025.237-.035.355-.054-.75-.122-1.541-.117-2.355.054-2.368.495-4.279 2.415-4.765 4.785-.527 2.567.522 4.931 2.356 6.311.99.746 1.508 1.965 1.508 3.205v1.764c0 .853.448 1.294 1 1.294h2c-.552 0-1-.441-1-1.294z" fill="#00b871"/><path d="m19.41 29.25h-2.82c-.464 0-.84-.376-.84-.84v-2.16h4.5v2.16c0 .464-.376.84-.84.84z" fill="#f3f3f1"/><path d="m17.75 28.41v-2.16h-2v2.16c0 .464.376.84.84.84h2c-.464 0-.84-.376-.84-.84z" fill="#d5dbe1"/><path d="m15.75 25.5h4.5v1.5h-4.5z"/><path d="m17.25 6h1.5v3.457h-1.5z"/><path d="m23.535 9.987h3.457v1.5h-3.457z" transform="matrix(.707 -.707 .707 .707 -.193 21.009)"/><path d="m26.543 17.25h3.457v1.5h-3.457z"/><path d="m24.513 23.535h1.5v3.457h-1.5z" transform="matrix(.707 -.707 .707 .707 -10.464 25.263)"/><path d="m9.008 24.513h3.457v1.5h-3.457z" transform="matrix(.707 -.707 .707 .707 -14.719 14.992)"/><path d="m6 17.25h3.457v1.5h-3.457z"/><path d="m9.987 9.008h1.5v3.457h-1.5z" transform="matrix(.707 -.707 .707 .707 -4.447 10.737)"/><path d="m22.5 17.75h-1.5c0-1.517-1.233-2.75-2.75-2.75v-1.5c2.343 0 4.25 1.907 4.25 4.25z"/><path d="m19.25 30h-2.5c-.843 0-1.75-.64-1.75-2.044v-1.764c0-1.061-.452-2.035-1.209-2.605-2.185-1.645-3.196-4.351-2.639-7.062.545-2.656 2.694-4.813 5.347-5.368 2.36-.493 4.775.215 6.454 1.895l-1.062 1.061c-1.339-1.341-3.192-1.884-5.086-1.487-2.076.434-3.757 2.122-4.184 4.201-.439 2.137.355 4.269 2.072 5.562 1.131.852 1.807 2.274 1.807 3.804v1.764c0 .091.012.544.25.544h2.5c.138 0 .25-.112.25-.25v-2.223c0-1.409.692-2.76 1.898-3.709 1.336-1.051 2.102-2.625 2.102-4.319 0-.728-.14-1.435-.415-2.101l1.386-.573c.351.849.529 1.749.529 2.674 0 2.158-.975 4.161-2.675 5.498-.842.662-1.325 1.584-1.325 2.529v2.223c0 .965-.785 1.75-1.75 1.75z"/></svg>